<?xml version="1.0" encoding="utf-8"?>
<!-- Generator: Adobe Illustrator 19.1.0, SVG Export Plug-In . SVG Version: 6.00 Build 0)  -->
<svg version="1.1" id="Layer_1" xmlns="http://www.w3.org/2000/svg" xmlns:xlink="http://www.w3.org/1999/xlink" x="0px" y="0px"
	 viewBox="-239 241 32 32" style="enable-background:new -239 241 32 32;" xml:space="preserve">
<style type="text/css">
	.st0{fill:#FE7E17;}
</style>
<g id="Layer_1_1_">
	<g id="fire_1_">
		<path class="st0" d="M-217,250c-0.1,2.7-2.1,4.9-2.1,4.9c0-5-3.9-8.9-3.9-8.9s-0.1,3-2,5.9c-2-7-8-10.9-8-10.9
			c3,10.9-1,14.9-1,22.9c0,4.7,4,9.1,10,9.1c9,0,10.7-3.3,11.6-7C-211.1,260.9-213,255-217,250z M-214.3,265.5
			c-0.6,2.6-1.4,5.5-9.7,5.5c-5,0-8-3.6-8-7.1c0-2.7,0.5-4.9,1-7.2c0.7-2.9,1.3-6,1-10c3.1,4.3,4.2,9.9,4.2,9.9s2.9-4,3.6-5.9
			c0.6,1.2,1.1,5.2,1.1,9.2c0,0,2.7-2.2,4.6-5.5C-214.3,258.3-213.5,262.2-214.3,265.5z"/>
		<path class="st0" d="M-216.6,257.8l-0.9,1c-1.1,1.2-2,2.4-4.7,3.7c-0.4-1.1-0.7-2.4-0.7-4.3v-1.7l-1.5,2.4
			c-0.5,0.8-0.9,1.5-1.6,2.4c-1-2.2-1.6-3.8-2.2-5.2l-0.5-1.3l-0.5,1.5c-0.7,1.9-1.3,3.7-1.3,8.4c0,0.3,0.2,0.5,0.5,0.5
			s0.5-0.2,0.5-0.5c0-3.6,0.4-5.4,0.8-6.9c0.5,1.3,1.2,2.8,2,4.8l0.4,0.8l0.5-0.7c0.8-1.1,1.3-1.9,1.9-2.7c0.2,1.5,0.5,2.5,0.9,3.6
			l0.2,0.5l0.5-0.2c2.7-1.3,4-2.5,5-3.6c0.2,1.9-0.1,3.9-0.7,5.4c-0.1,0.3,0,0.5,0.3,0.6c0.1,0,0.1,0,0.2,0c0.2,0,0.4-0.1,0.5-0.3
			c0.8-1.9,1-4.7,0.6-7L-216.6,257.8z"/>
	</g>
</g>
<g id="Layer_2">
</g>
</svg>
