<?xml version="1.0" encoding="utf-8"?>
<!-- Generator: Adobe Illustrator 19.1.0, SVG Export Plug-In . SVG Version: 6.00 Build 0)  -->
<svg version="1.1" id="Layer_1" xmlns="http://www.w3.org/2000/svg" xmlns:xlink="http://www.w3.org/1999/xlink" x="0px" y="0px"
	 viewBox="-239 241 32 32" style="enable-background:new -239 241 32 32;" xml:space="preserve">
<style type="text/css">
	.st0{fill:#FE7E17;}
</style>
<g id="bubble">
	<path class="st0" d="M-223.1,248c-6,0-11,3.2-11,7c0,0.3,0.2,0.5,0.5,0.5s0.5-0.2,0.5-0.5c0-3.2,4.7-6,10-6c0.3,0,0.5-0.2,0.5-0.5
		S-222.8,248-223.1,248z"/>
	<path class="st0" d="M-223.1,243c-8.8,0-16,5.4-16,12c0,4.1,2.8,7.8,7,9.9c0,0,0,0,0,0.1c0,1.8-1.3,3.7-1.9,4.7l0,0
		c0,0.1-0.1,0.2-0.1,0.4c0,0.5,0.4,0.9,0.9,0.9c0.1,0,0.3,0,0.3,0c3.1-0.5,6.1-3.4,6.8-4.2c1,0.1,2,0.2,3.1,0.2c8.8,0,16-5.4,16-12
		C-207.1,248.4-214.3,243-223.1,243z M-223.1,265c-0.9,0-1.9-0.1-2.8-0.2c-0.1,0-0.2,0-0.3,0c-0.6,0-1.2,0.3-1.5,0.7
		c-0.4,0.5-1.6,1.7-3.1,2.5c0.4-0.9,0.7-1.9,0.7-2.9c0-0.1,0-0.1,0-0.2c0-0.8-0.4-1.4-1.1-1.8c-3.7-1.9-5.9-4.9-5.9-8.1
		c0-5.5,6.3-10,14-10s14,4.5,14,10S-215.4,265-223.1,265z"/>
</g>
</svg>
