<?xml version="1.0" encoding="utf-8"?>
<!-- Generator: Adobe Illustrator 19.1.0, SVG Export Plug-In . SVG Version: 6.00 Build 0)  -->
<svg version="1.1" id="Layer_1" xmlns="http://www.w3.org/2000/svg" xmlns:xlink="http://www.w3.org/1999/xlink" x="0px" y="0px"
	 viewBox="0 0 512 512" style="enable-background:new 0 0 512 512;" xml:space="preserve">
<style type="text/css">
	.st0{fill:#FE7E17;}
</style>
<path class="st0" d="M483.5,151.5c-0.5,1.1-1.1,2.1-2,3L177.8,458.2c-1.2,2-2.8,3.8-5.2,4.7L21.9,505.2c-0.3,0.2-0.7,0.2-1,0.3
	l-0.5,0.2c-0.1,0-0.2,0-0.3,0c-1,0.3-2,0.5-3.1,0.5s-2.1-0.2-3.1-0.4c-0.2-0.1-0.4,0-0.7-0.1c-0.1,0-0.1-0.1-0.2-0.1
	c-1-0.4-1.8-0.9-2.6-1.5c-0.4-0.3-0.9-0.6-1.2-0.9c-0.4-0.4-0.6-0.8-0.9-1.2c-0.6-0.8-1.2-1.7-1.5-2.6c0-0.1-0.1-0.1-0.1-0.2
	c-0.1-0.2,0-0.4-0.1-0.7c-0.3-1-0.5-2-0.4-3.1c0-1.1,0.2-2.1,0.5-3.1c0-0.1,0-0.2,0-0.3l0.2-0.5c0.1-0.3,0.1-0.7,0.3-1l42.2-150.8
	c0.9-2.4,2.7-4,4.7-5.2L353,35.3c0.4-0.5,0.9-0.9,1.4-1.4l3.3-3.3c0.2-0.2,0.4-0.2,0.5-0.4c15.7-15,36.8-24.5,60.3-24.5
	C466.8,5.8,506,45,506,93.4C506,115.8,497.4,136.1,483.5,151.5z M442.4,163.6L403,124.2L145.7,381.5c0,0.1,0.2,0.1,0.2,0.2
	l25.8,52.5L442.4,163.6z M33.3,478.9l30.3-8.5l-21.8-21.8L33.3,478.9z M48.3,425.1L87,463.8l66.6-18.7c0,0-28.1-58.5-28.2-58.5
	L67,358.5L48.3,425.1z M130.5,366.3c0.1,0,0.1,0.1,0.2,0.2L388,109.2l-39.4-39.4L77.9,340.5L130.5,366.3z M418.1,27.6
	c-19.4,0-36.7,8.4-48.9,21.7l-0.1-0.1l-5.6,5.6l93.8,93.8l5.7-5.7l-0.1-0.1c13.2-12.1,21.5-29.4,21.5-48.7
	C484.6,57.3,454.8,27.6,418.1,27.6z"/>
</svg>
